HIERARCHY
ROOT Pelvis
{
	OFFSET 0.000000 0.000000 0.000000
	CHANNELS 6 Xposition Yposition Zposition Xrotation Yrotation Zrotation
	JOINT LeftUpLeg_virtual
	{
		OFFSET 0.000000 0.000000 0.000000
		CHANNELS 3 Xrotation Yrotation Zrotation
		JOINT LeftUpLeg
		{
			OFFSET 18.735201 -5.666702 -4.541200
			CHANNELS 3 Xrotation Yrotation Zrotation
			JOINT LeftLeg
			{
				OFFSET -0.021200 -31.938179 0.493100
				CHANNELS 3 Xrotation Yrotation Zrotation
				JOINT LeftFoot
				{
					OFFSET 0.021200 -31.938179 -4.336299
					CHANNELS 3 Xrotation Yrotation Zrotation
					JOINT LeftToeBase
					{
						OFFSET 0.943001 -26.722000 15.023500
						CHANNELS 3 Xrotation Yrotation Zrotation
						End Site
						{
							OFFSET 0 0 0
						}
					}
				}
			}
		}
	}
	JOINT RightUpLeg_virtual
	{
		OFFSET 0.000000 0.000000 0.000000
		CHANNELS 3 Xrotation Yrotation Zrotation
		JOINT RightUpLeg
		{
			OFFSET -18.735201 -5.666702 -4.541200
			CHANNELS 3 Xrotation Yrotation Zrotation
			JOINT RightLeg
			{
				OFFSET 0.018946 -31.938133 0.493100
				CHANNELS 3 Xrotation Yrotation Zrotation
				JOINT RightFoot
				{
					OFFSET -0.018946 -31.938126 -4.336299
					CHANNELS 3 Xrotation Yrotation Zrotation
					JOINT RightToeBase
					{
						OFFSET -0.943001 -26.722004 15.023500
						CHANNELS 3 Xrotation Yrotation Zrotation
						End Site
						{
							OFFSET 0 0 0
						}
					}
				}
			}
		}
	}
	JOINT Hips_virtual
	{
		OFFSET 0.000000 0.000000 0.000000
		CHANNELS 3 Xrotation Yrotation Zrotation
		JOINT Hips
		{
			OFFSET -0.000000 -0.000000 -0.000000
			CHANNELS 3 Xrotation Yrotation Zrotation
			JOINT Spine
			{
				OFFSET 0.000000 10.199997 -0.299500
				CHANNELS 3 Xrotation Yrotation Zrotation
				JOINT Spine1
				{
					OFFSET 0.000000 11.900002 -1.516600
					CHANNELS 3 Xrotation Yrotation Zrotation
					JOINT Spine2
					{
						OFFSET 0.000000 13.600006 -2.842500
						CHANNELS 3 Xrotation Yrotation Zrotation
						JOINT Neck_virtual
						{
							OFFSET 0.000000 0.000000 0.000000
							CHANNELS 3 Xrotation Yrotation Zrotation
							JOINT Neck
							{
								OFFSET 0.000000 9.624100 -2.890100
								CHANNELS 3 Xrotation Yrotation Zrotation
								JOINT Head
								{
									OFFSET 0.000000 14.068802 -1.351900
									CHANNELS 3 Xrotation Yrotation Zrotation
									End Site
									{
										OFFSET 0 0 0
									}
								}
							}
						}
						JOINT LeftShoulder_virtual
						{
							OFFSET 0.000000 0.000000 0.000000
							CHANNELS 3 Xrotation Yrotation Zrotation
							JOINT LeftShoulder
							{
								OFFSET 15.263000 10.923401 -0.547700
								CHANNELS 3 Xrotation Yrotation Zrotation
								JOINT LeftArm
								{
									OFFSET 25.438599 -2.830597 -13.032500
									CHANNELS 3 Xrotation Yrotation Zrotation
									JOINT LeftForeArm
									{
										OFFSET 29.960503 0.000000 0.000000
										CHANNELS 3 Xrotation Yrotation Zrotation
										JOINT LeftHand
										{
											OFFSET 27.849251 0.000000 0.000000
											CHANNELS 3 Xrotation Yrotation Zrotation
											End Site
											{
												OFFSET 0 0 0
											}
										}
									}
								}
							}
						}
						JOINT RightShoulder_virtual
						{
							OFFSET 0.000000 0.000000 0.000000
							CHANNELS 3 Xrotation Yrotation Zrotation
							JOINT RightShoulder
							{
								OFFSET -15.263000 10.923401 -0.547700
								CHANNELS 3 Xrotation Yrotation Zrotation
								JOINT RightArm
								{
									OFFSET -25.438599 -2.830597 -13.032500
									CHANNELS 3 Xrotation Yrotation Zrotation
									JOINT RightForeArm
									{
										OFFSET -29.960503 0.000000 0.000000
										CHANNELS 3 Xrotation Yrotation Zrotation
										JOINT RightHand
										{
											OFFSET -27.849251 0.000000 0.000000
											CHANNELS 3 Xrotation Yrotation Zrotation
											End Site
											{
												OFFSET 0 0 0
											}
										}
									}
								}
							}
						}
					}
				}
			}
		}
	}
}
MOTION
Frames: 9
Frame Time: 0.03333333
-4.061812 85.991959 10.477806 0.000000 0.000000 0.000000 -1.182118 -47.797613 -1.199192 -39.095477 -1.125412 22.022328 36.884394 -2.544096 -6.243585 1.194309 -12.927182 -18.039315 0.000000 0.000000 0.000000 -1.448109 -47.026570 -1.101968 -5.033028 -8.779007 -17.853421 31.101727 -13.628346 3.101321 -27.505228 -3.109013 22.084201 0.000000 0.000000 0.000000 -0.924498 -47.094540 -0.841324 -0.801541 0.015181 -0.039311 6.403312 2.534635 1.140292 9.979917 5.577722 -2.633320 0.000000 0.000000 0.000000 9.637695 8.420163 -3.114506 -0.208724 2.326652 1.589845 0.000000 0.000000 0.000000 10.324671 7.560286 -3.378408 -3.359179 -14.454470 -8.178819 -3.509555 8.087701 -60.642094 3.718880 -55.025831 4.000143 0.000000 0.000000 0.000000 8.240708 9.191900 -3.581548 7.193134 19.246495 3.844058 1.032203 -30.404430 72.068946 8.037654 49.471135 -8.063203 0.000000 0.000000 0.000000 
-4.060698 85.999336 10.486885 0.000000 0.000000 0.000000 -1.179353 -47.834905 -1.188377 -39.061763 -1.077602 22.031615 36.858361 -2.530164 -6.265041 1.143988 -12.881900 -18.067913 0.000000 0.000000 0.000000 -1.467357 -47.077673 -1.101071 -5.075234 -8.731982 -17.881370 31.129345 -13.559522 3.051690 -27.408624 -3.028666 22.197659 0.000000 0.000000 0.000000 -0.924686 -47.123442 -0.832653 -0.801354 0.013977 -0.040833 6.419587 2.549476 1.148646 9.986650 5.560668 -2.630011 0.000000 0.000000 0.000000 9.615460 8.401941 -3.095932 -0.198805 2.325247 1.567935 0.000000 0.000000 0.000000 10.348518 7.532837 -3.379062 -3.379955 -14.443845 -8.217921 -3.495519 8.092452 -60.690985 3.722044 -55.149304 4.022232 0.000000 0.000000 0.000000 8.297204 9.175249 -3.599459 7.161318 19.284773 3.792382 1.069455 -30.373086 72.209969 8.095687 49.446933 -8.240728 0.000000 0.000000 0.000000 
-4.044500 86.007286 10.509808 0.000000 0.000000 0.000000 -1.159774 -47.940155 -1.158249 -38.988571 -1.011780 22.044780 36.778506 -2.521959 -6.270583 0.960640 -12.816252 -18.125961 0.000000 0.000000 0.000000 -1.475747 -47.189842 -1.082455 -5.171178 -8.654476 -17.973646 31.211185 -13.473792 3.001047 -27.361408 -2.935472 22.326802 0.000000 0.000000 0.000000 -0.905557 -47.186789 -0.806275 -0.801314 0.014063 -0.043835 6.422724 2.537798 1.149786 10.012642 5.528143 -2.623697 0.000000 0.000000 0.000000 9.615523 8.363136 -3.082703 -0.170069 2.330045 1.528777 0.000000 0.000000 0.000000 10.371803 7.483136 -3.381003 -3.383895 -14.394212 -8.270132 -3.559951 8.099066 -60.789975 3.780180 -55.285279 4.114310 0.000000 0.000000 0.000000 8.356939 9.139402 -3.606931 7.150791 19.281897 3.749067 1.117648 -30.234857 72.387089 8.231951 49.397072 -8.576177 0.000000 0.000000 0.000000 
-4.017937 86.016685 10.539211 0.000000 0.000000 0.000000 -1.124593 -48.081687 -1.109914 -38.877737 -0.919597 22.068536 36.619506 -2.514607 -6.270355 0.705241 -12.751691 -18.208495 0.000000 0.000000 0.000000 -1.467529 -47.323259 -1.043338 -5.294982 -8.598678 -18.123461 31.300763 -13.388542 2.954911 -27.402680 -2.844311 22.496659 0.000000 0.000000 0.000000 -0.870818 -47.270862 -0.761699 -0.802442 0.013372 -0.045393 6.415128 2.496047 1.129164 10.047345 5.478570 -2.611451 0.000000 0.000000 0.000000 9.626775 8.302293 -3.068367 -0.126336 2.342087 1.476773 0.000000 0.000000 0.000000 10.393531 7.411112 -3.377512 -3.364518 -14.300137 -8.323070 -3.668782 8.112409 -60.922822 3.893053 -55.422006 4.266535 0.000000 0.000000 0.000000 8.410302 9.082155 -3.602719 7.163712 19.235228 3.714133 1.177749 -29.993229 72.590451 8.426386 49.304188 -9.038253 0.000000 0.000000 0.000000 
-3.987006 86.026375 10.578278 0.000000 0.000000 0.000000 -1.077514 -48.217901 -1.047783 -38.760658 -0.789122 22.090051 36.418435 -2.491196 -6.267455 0.489522 -12.693540 -18.277060 0.000000 0.000000 0.000000 -1.437644 -47.449293 -0.984082 -5.432559 -8.583746 -18.322903 31.379948 -13.297171 2.913217 -27.472527 -2.753596 22.781959 0.000000 0.000000 0.000000 -0.835794 -47.362929 -0.702565 -0.803041 0.010713 -0.044810 6.399564 2.419339 1.070831 10.074545 5.408543 -2.588947 0.000000 0.000000 0.000000 9.633851 8.214358 -3.046461 -0.074642 2.360622 1.415210 0.000000 0.000000 0.000000 10.405769 7.314607 -3.361842 -3.317213 -14.162493 -8.366335 -3.777704 8.089642 -61.082833 4.056427 -55.562851 4.468174 0.000000 0.000000 0.000000 8.439782 8.999532 -3.583214 7.201131 19.146506 3.683848 1.229621 -29.649291 72.807078 8.658043 49.155908 -9.598184 0.000000 0.000000 0.000000 
-3.948133 86.036362 10.624516 0.000000 0.000000 0.000000 -1.032002 -48.314545 -0.975920 -38.669311 -0.619867 22.097293 36.231814 -2.443337 -6.256837 0.379823 -12.647158 -18.297303 0.000000 0.000000 0.000000 -1.405200 -47.541627 -0.915015 -5.539837 -8.614223 -18.570183 31.387404 -13.204111 2.862413 -27.499849 -2.661910 23.220259 0.000000 0.000000 0.000000 -0.806548 -47.440161 -0.631729 -0.803791 0.006490 -0.041338 6.382255 2.308230 0.958108 10.084746 5.319038 -2.554600 0.000000 0.000000 0.000000 9.618834 8.098875 -3.014325 -0.022549 2.386566 1.349462 0.000000 0.000000 0.000000 10.402722 7.194711 -3.333169 -3.240132 -14.001195 -8.400375 -3.877308 8.010033 -61.266052 4.266109 -55.693998 4.708226 0.000000 0.000000 0.000000 8.428559 8.893442 -3.545773 7.257020 19.032112 3.664951 1.270315 -29.207713 73.041476 8.910889 48.956317 -10.226980 0.000000 0.000000 0.000000 
-3.902930 86.041473 10.666271 0.000000 0.000000 0.000000 -0.998271 -48.363904 -0.895645 -38.621605 -0.413003 22.079915 36.071090 -2.362638 -6.236815 0.383219 -12.617159 -18.277299 0.000000 0.000000 0.000000 -1.373658 -47.584958 -0.829847 -5.590214 -8.669024 -18.847301 31.286945 -13.133171 2.784791 -27.537446 -2.596851 23.768493 0.000000 0.000000 0.000000 -0.787546 -47.496541 -0.551508 -0.803704 0.002461 -0.036433 6.369879 2.169721 0.784026 10.067542 5.211366 -2.503689 0.000000 0.000000 0.000000 9.576831 7.960843 -2.975387 0.025513 2.418414 1.285532 0.000000 0.000000 0.000000 10.380284 7.058167 -3.295838 -3.136732 -13.822867 -8.430525 -3.992870 7.853710 -61.470009 4.498683 -55.793514 4.962731 0.000000 0.000000 0.000000 8.372869 8.769985 -3.492005 7.323742 18.905540 3.663861 1.319430 -28.695161 73.306781 9.162904 48.704433 -10.891605 0.000000 0.000000 0.000000 
-3.851026 86.042191 10.690094 0.000000 0.000000 0.000000 -0.978589 -48.365027 -0.801021 -38.613392 -0.160481 22.021447 35.933605 -2.253180 -6.198863 0.453067 -12.610545 -18.254729 0.000000 0.000000 0.000000 -1.342823 -47.589398 -0.722340 -5.601736 -8.737882 -19.137044 31.113496 -13.112421 2.697159 -27.647486 -2.586045 24.400851 0.000000 0.000000 0.000000 -0.776621 -47.518579 -0.459146 -0.802526 -0.000326 -0.033587 6.362634 2.011727 0.547197 10.018062 5.092043 -2.434935 0.000000 0.000000 0.000000 9.508213 7.813864 -2.939485 0.067489 2.455398 1.228180 0.000000 0.000000 0.000000 10.337283 6.917231 -3.255083 -3.009117 -13.635776 -8.449091 -4.150202 7.617117 -61.675809 4.723023 -55.792834 5.203947 0.000000 0.000000 0.000000 8.277267 8.640777 -3.426263 7.394061 18.777971 3.677039 1.395186 -28.131917 73.605472 9.390316 48.385456 -11.559261 0.000000 0.000000 0.000000 
-3.803798 86.042168 10.699203 0.000000 0.000000 0.000000 -0.965419 -48.331269 -0.684639 -38.638804 0.140029 21.918663 35.814333 -2.108817 -6.131829 0.538636 -12.621581 -18.249016 0.000000 0.000000 0.000000 -1.324786 -47.569942 -0.596830 -5.635992 -8.823477 -19.440921 30.948188 -13.153905 2.626255 -27.744304 -2.612867 25.092571 0.000000 0.000000 0.000000 -0.769882 -47.508737 -0.352390 -0.800868 -0.002055 -0.034356 6.360336 1.848254 0.253202 9.945508 4.976661 -2.353030 0.000000 0.000000 0.000000 9.419781 7.674678 -2.911805 0.103572 2.496361 1.179291 0.000000 0.000000 0.000000 10.281386 6.786162 -3.213877 -2.861059 -13.449445 -8.456502 -4.363528 7.338800 -61.864432 4.914795 -55.664645 5.406538 0.000000 0.000000 0.000000 8.150625 8.520718 -3.353324 7.457139 18.670544 3.713233 1.520633 -27.559434 73.939598 9.570669 47.990623 -12.196218 0.000000 0.000000 0.000000 
